<?xml version="1.0" encoding="utf-8"?>
<!-- Generator: Adobe Illustrator 23.0.0, SVG Export Plug-In . SVG Version: 6.00 Build 0)  -->
<svg version="1.1" id="Layer_2_1_" xmlns="http://www.w3.org/2000/svg" xmlns:xlink="http://www.w3.org/1999/xlink" x="0px" y="0px"
	 viewBox="0 0 64 64" style="enable-background:new 0 0 64 64;" xml:space="preserve">
<g>
	<path d="M22.1,42.1L16,48.3V9.3c0-1.6-1.1-2.7-2.7-2.7s-2.7,1.1-2.7,2.7v38.9l-6.1-6.1c-1.1-1.1-2.7-1.1-3.7,0s-1.1,2.7,0,3.7
		l10.7,10.7c0.5,0.5,1.1,0.8,1.9,0.8l0,0c0.8,0,1.3-0.3,1.9-0.8l10.7-10.7c1.1-1.1,1.1-2.7,0-3.7C24.8,41.1,23.2,41.1,22.1,42.1z"/>
	<path d="M42.7,49.3H32l0,0c-1.6,0-2.7,1.1-2.7,2.7s1.1,2.7,2.7,2.7h10.7l0,0c1.6,0,2.7-1.1,2.7-2.7C45.3,50.7,44.3,49.3,42.7,49.3z
		"/>
	<path d="M48,36H32l0,0c-1.6,0-2.7,1.1-2.7,2.7c0,1.6,1.1,2.7,2.7,2.7h16l0,0c1.6,0,2.7-1.1,2.7-2.7C50.7,37.1,49.6,36,48,36z"/>
	<path d="M53.3,22.7H32l0,0c-1.6,0-2.7,1.1-2.7,2.7c0,1.6,1.1,2.7,2.7,2.7h21.3l0,0c1.6,0,2.7-1.1,2.7-2.7
		C56,23.7,54.9,22.7,53.3,22.7z"/>
	<path d="M61.3,9.3H32l0,0c-1.6,0-2.7,1.1-2.7,2.7s1.1,2.7,2.7,2.7h29.3l0,0c1.6,0,2.7-1.1,2.7-2.7S62.9,9.3,61.3,9.3z"/>
</g>
</svg>
