<?xml version="1.0" encoding="utf-8"?>
<!-- Generator: Adobe Illustrator 23.0.0, SVG Export Plug-In . SVG Version: 6.00 Build 0)  -->
<svg version="1.1" id="Layer_2_1_" xmlns="http://www.w3.org/2000/svg" xmlns:xlink="http://www.w3.org/1999/xlink" x="0px" y="0px"
	 viewBox="0 0 64 64" style="enable-background:new 0 0 64 64;" xml:space="preserve">
<g>
	<path d="M22.1,43.5L16,49.6V8c0-1.6-1.1-2.7-2.7-2.7S10.7,6.4,10.7,8v41.6l-6.1-6.1c-1.1-1.1-2.7-1.1-3.7,0s-1.1,2.7,0,3.7
		l10.7,10.7c0.5,0.5,1.1,0.8,1.9,0.8l0,0c0.8,0,1.3-0.3,1.9-0.8l10.7-10.7c1.1-1.1,1.1-2.7,0-3.7C24.8,42.4,23.2,42.4,22.1,43.5z"/>
	<path d="M32,10.7h8c1.6,0,2.7-1.1,2.7-2.7S41.6,5.3,40,5.3h-8c-1.6,0-2.7,1.1-2.7,2.7S30.4,10.7,32,10.7z"/>
	<path d="M32,26.7L32,26.7h16c1.6,0,2.7-1.1,2.7-2.7s-1.1-2.7-2.7-2.7l0,0H32c-1.6,0-2.7,1.1-2.7,2.7S30.4,26.7,32,26.7z"/>
	<path d="M32,42.7L32,42.7h21.3c1.6,0,2.7-1.1,2.7-2.7s-1.1-2.7-2.7-2.7l0,0H32c-1.6,0-2.7,1.1-2.7,2.7S30.4,42.7,32,42.7z"/>
	<path d="M61.3,53.3L61.3,53.3H32c-1.6,0-2.7,1.1-2.7,2.7s1.1,2.7,2.7,2.7l0,0h29.3c1.6,0,2.7-1.1,2.7-2.7S62.9,53.3,61.3,53.3z"/>
</g>
</svg>
